
<svg version="1.0" xmlns="http://www.w3.org/2000/svg"
 width="152" height="29" viewBox="0 0 152 29"
 fill="none">


<path d="M12035 31484 c-981 -45 -1878 -224 -2771 -554 -628 -232 -1171 -503
-1744 -870 -766 -490 -1478 -1120 -2068 -1828 -426 -512 -796 -1073 -1098
-1667 -491 -966 -773 -1879 -919 -2980 -95 -719 -95 -1541 0 -2260 91 -688
229 -1270 448 -1896 222 -632 596 -1384 970 -1944 361 -541 694 -950 1142
-1401 625 -628 1278 -1120 2075 -1561 1053 -584 2308 -963 3530 -1068 606 -51
994 -51 1600 0 1241 106 2487 487 3573 1091 989 551 1855 1268 2574 2131 429
515 796 1072 1099 1668 491 966 774 1882 919 2980 95 721 95 1541 0 2260 -91
688 -229 1270 -448 1896 -222 633 -595 1380 -970 1944 -361 542 -696 953
-1147 1405 -617 620 -1268 1112 -2035 1538 -1128 626 -2372 995 -3695 1097
-194 15 -855 27 -1035 19z m1160 -3478 c565 -64 992 -185 1427 -402 808 -404
1397 -1093 1656 -1940 121 -392 169 -774 159 -1239 -9 -378 -51 -639 -158
-987 -236 -763 -693 -1378 -1351 -1816 -176 -117 -264 -167 -438 -250 -495
-238 -1053 -372 -1616 -389 -611 -19 -1127 124 -1634 451 -89 57 -299 219
-364 280 -15 15 -30 26 -32 24 -4 -5 62 -332 91 -447 144 -567 368 -1041 647
-1366 594 -692 1596 -965 3048 -829 347 32 885 111 1165 170 152 33 230 13
310 -79 178 -204 255 -653 242 -1415 -7 -383 -17 -478 -74 -657 -55 -174 -150
-303 -263 -358 -54 -27 -511 -146 -790 -208 -456 -99 -980 -177 -1435 -211
-362 -27 -939 -15 -1315 28 -952 108 -1821 442 -2470 947 -776 605 -1314 1415
-1650 2487 -180 577 -308 1285 -350 1945 -6 94 -13 188 -15 210 -2 22 -7 168
-10 325 -14 634 38 1273 151 1840 148 743 393 1370 738 1885 409 612 973 1141
1591 1491 520 294 1124 468 1810 523 172 14 766 6 930 -13z"/>
<path d="M12735 26305 c-417 -53 -767 -203 -1071 -458 -315 -264 -539 -625
-639 -1026 -85 -347 -78 -648 25 -1006 117 -409 403 -791 770 -1030 309 -201
621 -299 1002 -312 323 -11 614 49 903 186 601 286 1018 846 1105 1486 6 44
15 104 20 134 13 69 13 215 1 278 -5 26 -15 89 -21 138 -33 245 -120 486 -258
714 -293 486 -820 820 -1402 891 -143 18 -318 20 -435 5z"/>
</g>
</svg>
